<?xml version="1.0" encoding="utf-8"?>
<!-- Generator: Adobe Illustrator 24.2.0, SVG Export Plug-In . SVG Version: 6.00 Build 0)  -->
<svg version="1.1" id="Capa_1" xmlns="http://www.w3.org/2000/svg" xmlns:xlink="http://www.w3.org/1999/xlink" x="0px" y="0px"
	 viewBox="0 0 595.28 841.89" enable-background="new 0 0 595.28 841.89" xml:space="preserve">
<g>
	<path d="M162.58,404c-20.64-1.89-40.4-8.37-57.71-19.83c-14.89-9.85-27.56-22.97-36.89-38.2c-9.55-15.59-15.51-33.29-17.32-51.49
		c-0.4-4.07-0.61-8.16-0.61-12.24c0-67.1,54.11-121.57,121.08-122.14l1.08-0.02l45.91-0.27l43.77-0.25l10.18-20.98l-92.69,0.19
		c0,0-0.08,0-0.2,0c-2.31-0.14-4.62-0.19-6.96-0.19c-0.36,0-0.71,0-1.08,0.02c-78.85,0.57-142.57,64.67-142.57,143.64
		c0,18.28,3.48,36.53,10.29,53.5c6.6,16.45,16.29,31.62,28.38,44.57c12.07,12.91,26.51,23.58,42.41,31.29
		c19.15,9.28,39.79,13.67,61.01,14.24c20.21,0.54,40.49,0.06,60.71,0.06c5.58,0,11.16,0,16.75,0v-21.5c0,0-33.45,0-55.94,0
		C182.32,404.41,172.44,404.91,162.58,404z"/>
	<path d="M419.93,138.59h-13.79h-82.16h-24.7c-0.03,0-0.05,0.02-0.07,0.04l-10.4,21.35l-12.02,23.77l-3.15,6.07l-4.16,7.97
		c-0.01,0.02-0.04,0.04-0.07,0.04h-8.9h-84.82c-1.16-0.06-2.31-0.08-3.48-0.08c-46.09,0-83.57,36.91-84.48,82.78
		c-0.95,47.52,38.12,86.22,85.65,86.22h6.58h76.36h4.12h14.13c0.04,0,0.07,0.03,0.07,0.07v16.16v121.7c0,3.91,3.17,7.07,7.07,7.07
		h68.75c3.91,0,7.08-3.17,7.08-7.08v-35.11v-58.59V386.4v-19.58c0-0.04,0.03-0.07,0.07-0.07h62.61c47.52,0,86.59-38.7,85.65-86.22
		c-0.92-45.87-38.39-82.78-84.48-82.78c-1.17,0-2.33,0.02-3.48,0.08h-84.8h-27.97l-11.93-0.08c-0.06,0-0.09-0.06-0.07-0.11
		l20.06-37.62c0.01-0.02,0.04-0.04,0.07-0.04h32.66h75.46v0.11c67.46,0,122.16,54.7,122.16,122.16c0,39.08-18.35,73.87-46.91,96.23
		c-20.74,16.25-46.87,25.92-75.25,25.92h-37.2c-0.04,0-0.07,0.03-0.07,0.07v21.78c0,0.04,0.03,0.08,0.07,0.07
		c0.39-0.01,2.43-0.04,5.44-0.08c12-0.17,39.45-0.55,39.45-0.55c74.75-3.94,134.37-65.04,135.95-140.39
		C566.7,204.56,500.7,138.59,419.93,138.59z M294.68,218.4h125.64c35.94,0,65.62,29.22,64.89,65.16
		c-0.7,34.66-29.01,62.54-63.84,62.54v0.08c0,0-37.58,0-50.76,0c-2.8,0-4.5,0-4.5,0h-8.58H344c-3.9,0-7.06,3.16-7.06,7.06v137.87
		c0,0.04-0.03,0.07-0.07,0.07H295.3c-0.04,0-0.07-0.03-0.07-0.07V366.75V356.5v-5.49v-4.83v-53.56c0-0.04,0.03-0.07,0.07-0.07h63.06
		h63.61c3.92,0,7.1-3.18,7.1-7.1v-6.31c0-3.97-3.22-7.18-7.18-7.18H295.22h-1.28h-15.85l0,0c-1.91,0-3.45,1.55-3.45,3.45v17.13v1.12
		v52.44c0,0.04-0.03,0.07-0.07,0.07h-21.27h-25.81h-55.26c0,0,0,0-0.01,0l-1.07-0.09c0,0,0,0,0,0c-1.61-0.03-3.21-0.11-4.8-0.25
		c-24.16-2.2-44.42-17.85-53.24-39.41c-3.05-7.46-4.73-15.62-4.73-24.17c0-34.9,28-63.26,62.77-63.83c0.36-0.02,0.71-0.02,1.08-0.02
		c0,0,103.75,0,116.78,0c0.87,0,1.34,0,1.34,0H294.68z"/>
</g>
<g>
</g>
<g>
</g>
<g>
</g>
<g>
</g>
<g>
</g>
<g>
</g>
</svg>
